<?xml version="1.0" standalone="no"?><!DOCTYPE svg PUBLIC "-//W3C//DTD SVG 1.1//EN" "http://www.w3.org/Graphics/SVG/1.1/DTD/svg11.dtd"><svg class="icon" width="64px" height="64.00px" viewBox="0 0 1024 1024" version="1.1" xmlns="http://www.w3.org/2000/svg"><path fill="#999999" d="M904.96 72.256L666.624 309.76l0.832-134.592c0.32-11.2-8.704-21.056-19.84-20.736h-14.336c-11.136 0.32-20.48 6.912-20.672 18.24l-0.64 200.512c0 0.128 0.832 0.32 0.832 0.512l-1.152 10.176c-0.192 5.568 1.152 10.624 4.736 14.272a19.2 19.2 0 0 0 14.272 5.76l10.24-0.192c0.128 0 0.256 0 0.448-0.128l198.848 0.768a21.376 21.376 0 0 0 20.672-20.8V369.28a22.656 22.656 0 0 0-23.296-20.672l-131.008-0.32 237.76-236.8a27.776 27.776 0 1 0-39.232-39.232zM111.104 944.128l238.592-236.8-0.832 133.952c-0.32 11.2 8.704 21.056 19.84 20.736h15.168c11.136-0.32 20.48-6.912 20.672-18.24l0.64-200.64c0-0.192-0.832-0.384-0.832-0.512l1.152-10.24c0.192-5.504-1.152-10.624-4.736-14.208a19.2 19.2 0 0 0-14.272-5.76l-10.24 0.128c-0.128 0-0.256 0-0.448 0.192l-199.68-0.832a21.376 21.376 0 0 0-20.672 20.864v14.272c1.6 13.312 12.16 21.056 23.296 20.672l131.072 0.384-237.632 236.8a27.776 27.776 0 0 0 0 39.232 27.072 27.072 0 0 0 38.912 0z m500.672-300.928l0.512 200.704c0.32 11.136 9.536 17.92 20.672 18.24h14.336c11.136 0.32 20.032-9.6 19.84-20.736l-0.832-134.656 238.592 237.44a27.776 27.776 0 1 0 39.232-39.232l-237.568-236.8 131.008-0.32a22.912 22.912 0 0 0 23.296-20.672v-14.272a21.632 21.632 0 0 0-20.672-20.864l-198.848 0.832c-0.192 0-0.32-0.192-0.512-0.192l-10.176-0.128a18.816 18.816 0 0 0-14.272 5.76c-3.584 3.584-4.928 8.64-4.736 14.272l1.152 10.176c-0.192 0.128-1.024 0.32-1.024 0.448zM309.76 348.352l-131.072 0.32a22.912 22.912 0 0 0-23.296 20.672v14.272c0.32 11.2 9.536 20.48 20.672 20.864l199.872-0.832 0.448 0.192 10.24 0.128a18.816 18.816 0 0 0 14.272-5.76c3.584-3.584 4.928-8.64 4.736-14.272L404.48 373.76c0-0.128 0.832-0.32 0.832-0.448l-0.512-200.704c-0.128-11.136-9.536-17.92-20.672-18.24h-15.104c-11.2-0.32-20.032 9.6-19.84 20.736l0.64 133.952L111.36 72.128a27.776 27.776 0 1 0-39.232 39.232L309.76 348.352z"  /></svg>